<svg width="500" height="503" viewBox="0 0 500 503" fill="none" xmlns="http://www.w3.org/2000/svg">
<path d="M65.3788 167.667L62.9436 398.208C62.4564 444.338 99.2576 461.083 124.116 461.083H433.297L433.74 419.167H124.806C115.286 418.915 103.989 415.101 104.168 398.208C104.346 381.316 115.723 377.502 125.249 377.25H434.182L437.282 83.8333C437.526 60.7163 419.235 41.9167 396.5 41.9167H128.543C103.685 41.9167 66.5302 58.6624 66.0429 104.792L65.3788 167.667ZM128.101 83.8333H396.058L393.401 335.333H104.832L107.267 104.792C107.445 87.8992 118.822 84.0848 128.101 83.8333Z" fill="#385953"/>
<path d="M249.497 293.417L319.276 224.485C323.575 220.32 327.012 215.325 329.382 209.799C331.753 204.273 333.007 198.329 333.071 192.324C333.134 186.319 332.005 180.375 329.752 174.849C327.498 169.323 324.166 164.328 319.955 160.164C311.463 151.55 299.94 146.72 287.881 146.72C275.821 146.72 264.196 151.55 255.522 160.164L250.857 164.733L246.288 160.143C237.8 151.53 226.28 146.701 214.224 146.701C202.167 146.701 190.546 151.53 181.875 160.143C177.576 164.307 174.139 169.302 171.769 174.828C169.398 180.354 168.144 186.298 168.081 192.303C168.017 198.308 169.146 204.252 171.4 209.778C173.653 215.304 176.985 220.299 181.196 224.464L249.497 293.417Z" fill="#385953"/>
</svg>
