<svg width="99" height="99" viewBox="0 0 99 99" fill="none" xmlns="http://www.w3.org/2000/svg">
<path d="M93.4314 8.97168C91.4204 6.96074 88.9454 5.87793 86.161 5.87793C83.5313 5.87793 81.0563 6.96074 79.2001 8.6623L23.9767 59.8639C22.1204 59.8639 20.1095 60.1732 17.9438 61.1014C14.386 62.6482 12.8392 65.4326 11.2923 68.0623C9.90009 70.5373 8.35322 73.167 4.7954 75.7967C3.24853 77.0342 2.47509 78.8904 2.62978 80.7467C2.78447 82.6029 3.86728 84.3045 5.56884 85.2326C12.6845 89.0998 21.5017 92.8123 28.9267 92.8123C32.1751 92.8123 35.1142 92.0389 37.5892 90.1826C41.147 87.3982 43.0032 83.8404 43.0032 79.6639V78.8904L93.586 23.0482C97.2985 19.3357 97.1438 12.8389 93.4314 8.97168ZM33.4126 84.9232C30.0095 87.3982 21.1923 85.542 10.6735 80.1279C14.2313 77.0342 15.9329 73.9404 17.3251 71.6201C18.7173 69.2998 19.336 68.217 20.7282 67.5982C24.286 66.0514 27.2251 67.4436 27.5345 67.7529C31.711 70.692 35.8876 75.7967 35.8876 80.1279C36.0423 81.9842 35.2688 83.5311 33.4126 84.9232ZM88.4813 18.5623L40.5282 71.4654C38.3626 67.5982 34.9595 64.1951 31.8657 62.0295L83.9954 13.767C85.2329 12.5295 87.2438 12.5295 88.4813 13.767C89.5642 15.1592 89.7188 17.3248 88.4813 18.5623Z" fill="white"/>
</svg>
