<svg width="117" height="117" viewBox="0 0 117 117" fill="none" xmlns="http://www.w3.org/2000/svg">
<path d="M92.625 29.25H24.375C16.3117 29.25 9.75 35.8117 9.75 43.875V68.25C9.75 79.0042 18.4957 87.75 29.25 87.75H37.2304C42.9146 87.75 48.3454 85.0346 51.7627 80.4814C54.9803 76.1963 62.0197 76.1914 65.2373 80.4863C66.9332 82.738 69.1281 84.5659 71.6497 85.8263C74.1712 87.0866 76.9507 87.7451 79.7696 87.75H87.75C98.5042 87.75 107.25 79.0042 107.25 68.25V43.875C107.25 35.8117 100.688 29.25 92.625 29.25ZM97.5 68.25C97.5 73.6271 93.1271 78 87.75 78H79.7696C77.1371 78 74.6168 76.7374 73.0324 74.6363C69.5711 70.0148 64.272 67.3628 58.5 67.3628C52.728 67.3628 47.4289 70.0148 43.9676 74.6314C43.1799 75.6738 42.1621 76.5202 40.9934 77.1045C39.8248 77.6889 38.5369 77.9953 37.2304 78H29.25C23.8729 78 19.5 73.6271 19.5 68.25V43.875C19.5 41.1889 21.684 39 24.375 39H92.625C95.316 39 97.5 41.1889 97.5 43.875V68.25Z" fill="white"/>
<path d="M36.5625 63.375C43.2935 63.375 48.75 60.1011 48.75 56.0625C48.75 52.0239 43.2935 48.75 36.5625 48.75C29.8315 48.75 24.375 52.0239 24.375 56.0625C24.375 60.1011 29.8315 63.375 36.5625 63.375Z" fill="white"/>
<path d="M80.4375 63.375C87.1685 63.375 92.625 60.1011 92.625 56.0625C92.625 52.0239 87.1685 48.75 80.4375 48.75C73.7065 48.75 68.25 52.0239 68.25 56.0625C68.25 60.1011 73.7065 63.375 80.4375 63.375Z" fill="white"/>
</svg>
