<svg width="103" height="103" viewBox="0 0 103 103" fill="none" xmlns="http://www.w3.org/2000/svg">
<path d="M81.0182 90.1252C79.3959 91.7474 77.2415 92.6401 74.9498 92.6401C72.658 92.6401 70.5036 91.7474 68.8813 90.1252L50.2727 71.5165C47.1906 72.4669 43.9833 72.9486 40.758 72.9456C36.5308 72.9576 32.3432 72.1312 28.4375 70.5143C24.5317 68.8973 20.9854 66.5219 18.0036 63.5254C13.5011 59.0387 10.4318 53.3162 9.18494 47.0833C7.93806 40.8504 8.56963 34.3876 10.9996 28.514L13.4459 22.5572L31.6597 40.7667L40.7623 31.6598L22.5528 13.4503L28.5139 10.9997C32.4039 9.401 36.5695 8.58013 40.7752 8.58351C49.3714 8.58351 57.4526 11.931 63.5253 18.008C67.675 22.1446 70.6134 27.3381 72.022 33.0256C73.4307 38.713 73.2558 44.6776 71.5164 50.2728L90.1251 68.8814C91.7342 70.491 92.6382 72.6739 92.6382 74.9499C92.6382 77.2258 91.7342 79.4086 90.1251 81.0183L81.0182 90.1252ZM61.4997 52.3971L62.5898 49.7535C64.3699 45.4458 64.8325 40.7069 63.9188 36.1362C63.0051 31.5656 60.7563 27.3687 57.4569 24.0764C55.0035 21.6071 52.0308 19.7153 48.7548 18.5387C45.4787 17.362 41.9817 16.9301 38.5178 17.2741L52.9078 31.6641L31.6683 52.9078L17.2698 38.5093C16.934 41.9753 17.3706 45.4726 18.5483 48.7496C19.726 52.0267 21.6154 55.0019 24.0806 57.4613C30.7327 64.1134 41.0928 66.1605 49.762 62.5941L52.4013 61.4998L74.9498 84.0568H74.9455L74.9498 88.3484V84.0568L84.0567 74.9499L61.4997 52.3971Z" fill="white"/>
</svg>
