<svg width="25" height="25" viewBox="0 0 25 25" fill="none" xmlns="http://www.w3.org/2000/svg">
<path d="M8.32031 15.5973H11.3203V18.5973H13.3203V15.5973H16.3203V13.5973H13.3203V10.5973H11.3203V13.5973H8.32031V15.5973Z" fill="white"/>
<path d="M19.3203 4.59729H17.3203V2.59729H15.3203V4.59729H9.32031V2.59729H7.32031V4.59729H5.32031C4.21731 4.59729 3.32031 5.49429 3.32031 6.59729V20.5973C3.32031 21.7003 4.21731 22.5973 5.32031 22.5973H19.3203C20.4233 22.5973 21.3203 21.7003 21.3203 20.5973V6.59729C21.3203 5.49429 20.4233 4.59729 19.3203 4.59729ZM19.3223 20.5973H5.32031V8.59729H19.3203L19.3223 20.5973Z" fill="white"/>
</svg>
