<svg width="31" height="30" viewBox="0 0 31 30" fill="none" xmlns="http://www.w3.org/2000/svg">
<path d="M15.2558 1.875C7.88416 1.875 1.90698 7.75195 1.90698 15C1.90698 22.248 7.88416 28.125 15.2558 28.125C22.6275 28.125 28.6047 22.248 28.6047 15C28.6047 7.75195 22.6275 1.875 15.2558 1.875ZM15.2558 25.8984C9.13562 25.8984 4.17152 21.0176 4.17152 15C4.17152 8.98242 9.13562 4.10156 15.2558 4.10156C21.376 4.10156 26.3401 8.98242 26.3401 15C26.3401 21.0176 21.376 25.8984 15.2558 25.8984Z" fill="#385953"/>
<path d="M20.4612 18.709L16.2122 15.6885V8.4375C16.2122 8.30859 16.1049 8.20312 15.9738 8.20312H14.5406C14.4095 8.20312 14.3022 8.30859 14.3022 8.4375V16.5059C14.3022 16.582 14.338 16.6523 14.4006 16.6963L19.3289 20.2295C19.4362 20.3057 19.5852 20.2822 19.6626 20.1797L20.5148 19.0371C20.5923 18.9287 20.5685 18.7822 20.4612 18.709Z" fill="#385953"/>
</svg>
