<svg width="103" height="103" viewBox="0 0 103 103" fill="none" xmlns="http://www.w3.org/2000/svg">
<path d="M90.1249 11.9092H12.8749C7.40303 11.9092 2.73584 16.4154 2.73584 22.0482V58.4201C2.73584 63.892 7.24209 68.5592 12.8749 68.5592H47.9593V83.8482H37.3374C35.4062 83.8482 33.6358 85.4576 33.6358 87.5498C33.6358 89.642 35.2452 91.2514 37.3374 91.2514H65.9843C67.9155 91.2514 69.6858 89.642 69.6858 87.5498C69.6858 85.4576 68.0765 83.8482 65.9843 83.8482H55.3624V68.5592H90.1249C95.5968 68.5592 100.264 64.0529 100.264 58.4201V22.0482C100.264 16.4154 95.5968 11.9092 90.1249 11.9092ZM93.0218 58.4201C93.0218 60.0295 91.7343 61.317 90.1249 61.317H12.8749C11.2655 61.317 9.97803 60.0295 9.97803 58.4201V22.0482C9.97803 20.4389 11.2655 19.1514 12.8749 19.1514H90.1249C91.7343 19.1514 93.0218 20.4389 93.0218 22.0482V58.4201Z" fill="white"/>
<path d="M72.5827 28.3246C71.1343 26.8762 68.8812 26.8762 67.4327 28.3246C65.9843 29.7731 65.9843 32.0262 67.4327 33.4746L73.3874 39.4293L67.5937 45.384C66.1452 46.8324 66.1452 49.0856 67.5937 50.534C68.2374 51.1777 69.203 51.6606 70.1686 51.6606C71.1343 51.6606 72.0999 51.3387 72.7437 50.534L80.7905 42.4871C82.3999 40.8778 82.3999 38.3028 80.7905 36.6934L72.5827 28.3246ZM29.4515 40.0731L35.2452 34.2793C36.6937 32.8309 36.6937 30.5778 35.2452 29.1293C33.7968 27.6809 31.5437 27.6809 30.0952 29.1293L22.0483 37.1762C20.439 38.7856 20.439 41.3606 22.0483 42.9699L30.2562 51.1777C30.8999 51.8215 31.8655 52.3043 32.8312 52.3043C33.7968 52.3043 34.7624 51.9824 35.4062 51.1777C36.8546 49.7293 36.8546 47.4762 35.4062 46.0278L29.4515 40.0731ZM56.489 27.5199C54.5577 26.7153 52.4655 27.6809 51.8218 29.6121L44.4187 48.2809C43.614 50.2121 44.5796 52.3043 46.5108 52.9481C46.9937 53.109 47.3155 53.2699 47.7983 53.2699C49.2468 53.2699 50.5343 52.4653 51.178 51.0168L58.5812 32.1871C59.2249 30.4168 58.4202 28.1637 56.489 27.5199Z" fill="white"/>
</svg>
