<svg width="989" height="1262" viewBox="0 0 989 1262" fill="none" xmlns="http://www.w3.org/2000/svg">
<g opacity="0.16">
<path d="M761.045 263.048L861.576 105.219" stroke="#D5D5D5" stroke-width="21" stroke-miterlimit="10"/>
<path d="M761.047 263.048L784.552 33.529L861.578 105.219L963.736 137.452L761.047 263.048Z" stroke="#D5D5D5" stroke-width="21" stroke-miterlimit="10" stroke-linecap="square"/>
</g>
<path d="M281.496 775.5L289.151 771.818L289.469 772.479L289.67 773.184L281.496 775.5ZM225.93 1223.45L231.488 1229.89L218.628 1240.99L213.07 1234.55L225.93 1223.45ZM735.126 330.161L729.423 336.456L716.819 325.029L722.522 318.734L735.126 330.161ZM692.871 344.445L699.788 339.515L709.666 353.366L702.75 358.296L692.871 344.445ZM666.686 380.343L659.169 384.299L651.235 369.25L658.752 365.294L666.686 380.343ZM622.18 381.972L630.09 378.875L636.308 394.708L628.398 397.805L622.18 381.972ZM588.488 411.049L580.295 413.295L575.777 396.898L583.97 394.651L588.488 411.049ZM544.667 403.191L553.056 401.844L555.777 418.63L547.387 419.978L544.667 403.191ZM505.46 424.262L496.97 424.626L496.217 407.64L504.707 407.276L505.46 424.262ZM464.656 406.474L473.126 407.195L471.71 424.136L463.241 423.415L464.656 406.474ZM417.057 415.394L408.871 413.096L413.441 396.727L421.627 399.025L417.057 415.394ZM376.733 381.908L384.437 385.509L377.261 400.91L369.556 397.309L376.733 381.908ZM325.108 374.273L317.661 370.166L325.851 355.28L333.299 359.388L325.108 374.273ZM289.634 335.583L297.187 339.493L289.393 354.59L281.84 350.68L289.634 335.583ZM237.781 331.202L229.734 328.455L235.203 312.365L243.25 315.112L237.781 331.202ZM192.021 305.846L200.52 305.823L200.592 322.825L192.093 322.848L192.021 305.846ZM147.844 332.907L140.152 336.512L132.921 321.114L140.613 317.51L147.844 332.907ZM98.0764 346.947L104.314 341.182L115.86 353.678L109.622 359.443L98.0764 346.947ZM78.9222 395.2L74.436 402.414L59.9988 393.417L64.4851 386.204L78.9222 395.2ZM46.7807 435.367L47.8154 426.931L64.6871 429.027L63.6524 437.463L46.7807 435.367ZM67.636 482.717L69.9131 490.91L53.5364 495.44L51.2594 487.247L67.636 482.717ZM71.2008 534.227L67.0501 526.802L81.8833 518.522L86.034 525.947L71.2008 534.227ZM112.453 565.98L117.56 572.783L103.973 582.979L98.8657 576.176L112.453 565.98ZM130.389 614.712L124.78 608.317L137.55 597.116L143.159 603.511L130.389 614.712ZM176.16 639.487L182.016 645.657L169.695 657.352L163.84 651.181L176.16 639.487ZM197.947 686.649L192.043 680.525L204.27 668.733L210.174 674.856L197.947 686.649ZM244.062 710.844L249.767 717.155L237.166 728.546L231.461 722.236L244.062 710.844ZM261.93 759.413L257.039 752.453L270.94 742.69L275.831 749.65L261.93 759.413ZM294.174 794.102L295.381 802.519L278.555 804.908L277.348 796.491L294.174 794.102ZM276.582 833.803L278.225 825.465L294.902 828.777L293.259 837.115L276.582 833.803ZM278.127 877.218L273.969 884.626L259.144 876.286L263.302 868.878L278.127 877.218ZM240.883 900.414L246.363 893.924L259.357 904.905L253.878 911.395L240.883 900.414ZM226.105 941.495L220.178 947.578L207.996 935.701L213.924 929.618L226.105 941.495ZM185.737 958.765L191.527 952.551L203.97 964.153L198.179 970.367L185.737 958.765ZM172.787 1000.44L167.746 1007.28L154.061 997.175L159.102 990.339L172.787 1000.44ZM137.628 1026.58L141.078 1018.82L156.612 1025.74L153.162 1033.51L137.628 1026.58ZM141.491 1076.07L140.401 1084.5L123.543 1082.29L124.633 1073.86L141.491 1076.07ZM128.665 1129.92L126.199 1121.78L142.466 1116.87L144.932 1125.01L128.665 1129.92ZM169.142 1167.9L174.625 1174.4L161.636 1185.35L156.154 1178.85L169.142 1167.9ZM194.912 1216.74L188.592 1211.04L199.956 1198.42L206.277 1204.11L194.912 1216.74ZM748.454 312.282C745.015 318.23 740.503 324.225 735.126 330.161L722.522 318.734C727.28 313.482 731.022 308.448 733.736 303.753L748.454 312.282ZM702.75 358.296C692.005 365.954 679.895 373.39 666.686 380.343L658.752 365.294C671.341 358.668 682.795 351.626 692.871 344.445L702.75 358.296ZM628.398 397.805C615.689 402.782 602.334 407.252 588.488 411.049L583.97 394.651C597.227 391.016 610.014 386.736 622.18 381.972L628.398 397.805ZM547.387 419.978C533.679 422.18 519.66 423.655 505.46 424.262L504.707 407.276C518.213 406.698 531.574 405.294 544.667 403.191L547.387 419.978ZM463.241 423.415C456.24 422.818 449.225 421.986 442.212 420.901L444.785 404.099C451.404 405.123 458.033 405.91 464.656 406.474L463.241 423.415ZM442.212 420.901C433.672 419.58 425.29 417.705 417.057 415.394L421.627 399.025C429.273 401.171 436.986 402.892 444.785 404.099L442.212 420.901ZM369.556 397.309C354.35 390.202 339.532 382.23 325.108 374.273L333.299 359.388C347.656 367.308 362.065 375.053 376.733 381.908L369.556 397.309ZM281.84 350.68C266.845 342.919 252.233 336.136 237.781 331.202L243.25 315.112C258.834 320.433 274.285 327.638 289.634 335.583L281.84 350.68ZM192.093 322.848C177.538 322.887 162.867 325.867 147.844 332.907L140.613 317.51C157.931 309.394 175.051 305.892 192.021 305.846L192.093 322.848ZM109.622 359.443C104.112 364.535 98.5272 370.25 92.865 376.643L80.134 365.358C86.1383 358.578 92.1165 352.454 98.0764 346.947L109.622 359.443ZM92.865 376.643C87.3906 382.823 82.77 389.014 78.9222 395.2L64.4851 386.204C68.8709 379.152 74.0725 372.201 80.134 365.358L92.865 376.643ZM63.6524 437.463C61.8382 452.254 63.3657 467.35 67.636 482.717L51.2594 487.247C46.4965 470.108 44.6497 452.741 46.7807 435.367L63.6524 437.463ZM86.034 525.947C93.4986 539.299 102.458 552.666 112.453 565.98L98.8657 576.176C88.5326 562.411 79.1234 548.398 71.2008 534.227L86.034 525.947ZM143.159 603.511C153.842 615.689 164.973 627.697 176.16 639.487L163.84 651.181C152.568 639.302 141.272 627.119 130.389 614.712L143.159 603.511ZM210.174 674.856C222.09 687.216 233.59 699.258 244.062 710.844L231.461 722.236C221.186 710.869 209.85 698.995 197.947 686.649L210.174 674.856ZM275.831 749.65C281.138 757.201 285.675 764.608 289.151 771.818L273.841 779.183C270.882 773.043 266.876 766.451 261.93 759.413L275.831 749.65ZM289.67 773.184C291.716 780.372 293.204 787.337 294.174 794.102L277.348 796.491C276.492 790.524 275.169 784.308 273.322 777.816L289.67 773.184ZM293.259 837.115C290.406 851.591 285.071 864.848 278.127 877.218L263.302 868.878C269.521 857.798 274.133 846.229 276.582 833.803L293.259 837.115ZM253.878 911.395C245.154 921.729 235.656 931.694 226.105 941.495L213.924 929.618C223.425 919.869 232.57 910.262 240.883 900.414L253.878 911.395ZM198.179 970.367C189.062 980.151 180.436 990.071 172.787 1000.44L159.102 990.339C167.281 979.246 176.382 968.803 185.737 958.765L198.179 970.367ZM153.162 1033.51C150.604 1039.26 148.421 1045.19 146.674 1051.34L130.323 1046.66C132.303 1039.7 134.766 1033.02 137.628 1026.58L153.162 1033.51ZM146.674 1051.34C144.179 1060.11 142.49 1068.34 141.491 1076.07L124.633 1073.86C125.748 1065.24 127.616 1056.19 130.323 1046.66L146.674 1051.34ZM144.932 1125.01C149.966 1141.63 158.745 1155.57 169.142 1167.9L156.154 1178.85C144.723 1165.29 134.55 1149.34 128.665 1129.92L144.932 1125.01ZM206.277 1204.11C213.417 1210.54 220.321 1216.95 225.93 1223.45L213.07 1234.55C208.235 1228.95 202.057 1223.17 194.912 1216.74L206.277 1204.11Z" fill="#D5D5D5" fill-opacity="0.2"/>
</svg>
