<svg width="278" height="278" viewBox="0 0 278 278" fill="none" xmlns="http://www.w3.org/2000/svg">
<path d="M185.333 72.7434C185.332 79.7132 182.576 86.4 177.665 91.3462C166.36 102.744 155.39 114.629 143.657 125.61C142.347 126.803 140.628 127.448 138.857 127.411C137.085 127.375 135.395 126.659 134.135 125.413L100.335 91.3578C95.4188 86.4099 92.6597 79.7182 92.6597 72.7434C92.6597 65.7685 95.4188 59.0768 100.335 54.1289C102.787 51.6592 105.703 49.699 108.915 48.3613C112.128 47.0237 115.574 46.335 119.054 46.335C122.534 46.335 125.979 47.0237 129.192 48.3613C132.404 49.699 135.321 51.6592 137.772 54.1289L139 55.3684L140.228 54.1289C143.908 50.4091 148.612 47.8685 153.74 46.8306C158.869 45.7926 164.19 46.3042 169.027 48.3003C173.864 50.2964 177.997 53.6867 180.901 58.0395C183.805 62.3923 185.348 67.5108 185.333 72.7434Z" stroke="white" stroke-width="11" stroke-linejoin="round"/>
<path d="M208.5 231.667L252.795 187.372C254.098 186.07 254.832 184.303 254.833 182.461V121.625C254.833 117.017 253.003 112.597 249.744 109.339C246.486 106.081 242.066 104.25 237.458 104.25C232.85 104.25 228.431 106.081 225.172 109.339C221.914 112.597 220.083 117.017 220.083 121.625V173.75" stroke="white" stroke-width="11" stroke-linecap="round" stroke-linejoin="round"/>
<path d="M208.5 185.333L218.439 175.395C218.963 174.875 219.378 174.256 219.661 173.574C219.943 172.892 220.087 172.16 220.083 171.422C220.075 170.382 219.781 169.364 219.234 168.479C218.686 167.594 217.906 166.877 216.979 166.406L211.848 163.846C207.5 161.673 202.579 160.921 197.782 161.699C192.984 162.476 188.552 164.743 185.113 168.178L174.746 178.545C170.401 182.889 167.96 188.781 167.958 194.924V231.667M69.5001 231.667L25.2054 187.372C23.9017 186.07 23.1684 184.303 23.1667 182.461V121.625C23.1667 117.017 24.9973 112.597 28.2558 109.339C31.5142 106.081 35.9336 104.25 40.5417 104.25C45.1499 104.25 49.5693 106.081 52.8277 109.339C56.0862 112.597 57.9167 117.017 57.9167 121.625V173.75" stroke="white" stroke-width="11" stroke-linecap="round" stroke-linejoin="round"/>
<path d="M69.5001 185.333L59.5616 175.395C58.5134 174.337 57.9227 172.911 57.9167 171.422C57.9167 169.302 59.1214 167.368 61.0211 166.406L66.1525 163.846C70.4998 161.673 75.4208 160.921 80.2187 161.699C85.0166 162.476 89.4484 164.743 92.8868 168.178L103.254 178.545C107.599 182.889 110.04 188.781 110.042 194.924V231.667" stroke="white" stroke-width="11" stroke-linecap="round" stroke-linejoin="round"/>
</svg>
