<svg width="142" height="27" viewBox="0 0 142 27" fill="none" xmlns="http://www.w3.org/2000/svg">
<path d="M83.4049 25.2252V26.1775C83.4049 26.2087 83.3894 26.2243 83.3582 26.2243L79.1644 26.2258C79.155 26.2258 79.146 26.222 79.1393 26.2154C79.1327 26.2088 79.1289 26.1997 79.1289 26.1903V1.90872C79.129 1.89919 79.1322 1.88995 79.1381 1.88244C79.1439 1.87494 79.1521 1.86959 79.1613 1.86725L83.3808 0.893817C83.3837 0.893144 83.3866 0.893141 83.3895 0.89381C83.3923 0.894479 83.395 0.895802 83.3973 0.897682C83.3996 0.899561 83.4015 0.90195 83.4028 0.904674C83.4042 0.907397 83.4049 0.910386 83.4049 0.913421V10.9185C83.405 10.9224 83.4061 10.9262 83.4082 10.9295C83.4103 10.9329 83.4132 10.9355 83.4167 10.9373C83.4203 10.939 83.4242 10.9397 83.4281 10.9393C83.432 10.9389 83.4357 10.9374 83.4388 10.9351C84.5268 10.0755 85.7497 9.62232 87.1324 9.48735C93.9506 8.82457 98.8994 15.8068 95.7499 21.9822C93.9996 25.4145 90.0694 27.2686 86.3051 26.5259C85.2874 26.3248 84.3355 25.8842 83.4494 25.2041C83.4197 25.1815 83.4049 25.1885 83.4049 25.2252ZM83.8661 20.2374C84.7431 21.8314 86.4761 22.7633 88.2543 22.648C91.067 22.4663 93.1308 19.7458 92.461 16.9808C92.1144 15.5504 91.052 14.3508 89.7138 13.7935C85.7859 12.1573 81.7699 16.4273 83.8661 20.2374ZM113.511 4.63299C112.74 7.9469 107.865 7.33765 107.898 3.90838C107.917 1.91777 109.855 0.672135 111.703 1.2761C113.117 1.73907 113.848 3.18603 113.511 4.63299ZM69.923 13.8591H67.3883C67.3797 13.8591 67.3714 13.8557 67.3653 13.8496C67.3593 13.8436 67.3559 13.8353 67.3559 13.8267V9.78217C67.3559 9.77357 67.3593 9.76533 67.3653 9.75925C67.3714 9.75317 67.3797 9.74975 67.3883 9.74975H69.923C69.9315 9.74975 69.9398 9.74633 69.9459 9.74025C69.9519 9.73417 69.9554 9.72593 69.9554 9.71733V3.9966C69.9553 3.98929 69.9578 3.98218 69.9623 3.97643C69.9668 3.97068 69.9731 3.96663 69.9802 3.96493L74.3421 2.95756C74.3469 2.95642 74.3518 2.95638 74.3566 2.95744C74.3614 2.9585 74.3659 2.96064 74.3698 2.96369C74.3736 2.96674 74.3767 2.97062 74.3788 2.97504C74.381 2.97947 74.3821 2.98432 74.382 2.98923V9.71733C74.382 9.72159 74.3829 9.7258 74.3845 9.72974C74.3861 9.73367 74.3885 9.73724 74.3915 9.74025C74.3945 9.74326 74.3981 9.74565 74.402 9.74728C74.406 9.74891 74.4102 9.74975 74.4144 9.74975H77.6649C77.6735 9.74975 77.6818 9.75317 77.6878 9.75925C77.6939 9.76533 77.6973 9.77357 77.6973 9.78217V13.8267C77.6973 13.8353 77.6939 13.8436 77.6878 13.8496C77.6818 13.8557 77.6735 13.8591 77.6649 13.8591H74.4144C74.4058 13.8591 74.3976 13.8626 74.3915 13.8686C74.3855 13.8747 74.382 13.883 74.382 13.8916V26.1934C74.382 26.202 74.3786 26.2102 74.3725 26.2163C74.3665 26.2224 74.3582 26.2258 74.3496 26.2258L69.9878 26.2243C69.9792 26.2243 69.9709 26.2209 69.9648 26.2148C69.9588 26.2087 69.9554 26.2005 69.9554 26.1919V13.8916C69.9554 13.883 69.9519 13.8747 69.9459 13.8686C69.9398 13.8626 69.9315 13.8591 69.923 13.8591ZM116.884 13.9345H114.348C114.34 13.9345 114.332 13.9312 114.326 13.9253C114.32 13.9193 114.316 13.9113 114.316 13.9029V9.78142C114.316 9.77302 114.32 9.76497 114.326 9.75903C114.332 9.75309 114.34 9.74975 114.348 9.74975H116.884C116.893 9.74975 116.901 9.74641 116.907 9.74047C116.913 9.73454 116.916 9.72648 116.916 9.71808V4.01319C116.916 4.00479 116.919 3.99673 116.925 3.99079C116.931 3.98485 116.939 3.98152 116.947 3.98152H121.311C121.319 3.98152 121.327 3.98485 121.333 3.99079C121.339 3.99673 121.343 4.00479 121.343 4.01319V9.71808C121.343 9.72648 121.346 9.73454 121.352 9.74047C121.358 9.74641 121.366 9.74975 121.374 9.74975H124.626C124.635 9.74975 124.643 9.75309 124.649 9.75903C124.654 9.76497 124.658 9.77302 124.658 9.78142V13.9029C124.658 13.9113 124.654 13.9193 124.649 13.9253C124.643 13.9312 124.635 13.9345 124.626 13.9345H121.374C121.366 13.9345 121.358 13.9379 121.352 13.9438C121.346 13.9498 121.343 13.9578 121.343 13.9662V26.1926C121.343 26.201 121.339 26.2091 121.333 26.215C121.327 26.2209 121.319 26.2243 121.311 26.2243L116.947 26.2258C116.939 26.2258 116.931 26.2224 116.925 26.2165C116.919 26.2106 116.916 26.2025 116.916 26.1941V13.9662C116.916 13.9621 116.915 13.9579 116.913 13.9541C116.912 13.9503 116.91 13.9468 116.907 13.9438C116.904 13.9409 116.9 13.9385 116.896 13.937C116.892 13.9354 116.888 13.9345 116.884 13.9345ZM5.40417 20.7471C7.37678 23.3613 11.1133 23.4065 13.0361 20.7132C13.0458 20.6998 13.0591 20.6895 13.0745 20.6836C13.0899 20.6777 13.1067 20.6764 13.1228 20.68L17.0379 21.578C17.042 21.5789 17.0459 21.5807 17.0492 21.5832C17.0526 21.5858 17.0553 21.5891 17.0572 21.5929C17.0591 21.5966 17.0601 21.6008 17.0601 21.605C17.0602 21.6092 17.0593 21.6134 17.0575 21.6172C14.6237 26.8863 7.79797 28.4034 3.44061 24.4652C0.651991 21.946 -0.180601 17.9271 1.36403 14.4955C3.61768 9.48886 10.0418 7.84661 14.4316 11.2073C16.4328 12.7387 17.7944 15.2224 17.8162 17.7966C17.8167 17.8253 17.8026 17.8429 17.774 17.8494L5.42 20.7026C5.4154 20.7036 5.41113 20.7058 5.4076 20.7089C5.40407 20.7121 5.40139 20.716 5.39981 20.7205C5.39823 20.7249 5.3978 20.7297 5.39857 20.7343C5.39933 20.739 5.40126 20.7434 5.40417 20.7471ZM12.9894 15.3483C11.7696 13.5779 9.38555 12.9558 7.45514 13.7574C5.93161 14.3902 4.98147 15.568 4.60473 17.2907C4.60384 17.2944 4.60394 17.2983 4.60503 17.302C4.60611 17.3056 4.60814 17.309 4.61093 17.3117C4.61371 17.3144 4.61716 17.3164 4.62095 17.3175C4.62475 17.3185 4.62876 17.3187 4.63261 17.3178L12.9721 15.3928C12.9997 15.3863 13.0055 15.3715 12.9894 15.3483ZM37.4631 20.7576C39.4184 23.3862 43.1866 23.3862 45.1004 20.7056C45.1075 20.6955 45.1175 20.6878 45.129 20.6834C45.1406 20.6789 45.1531 20.678 45.1652 20.6807L49.0644 21.5765C49.1066 21.5861 49.1184 21.6104 49.0998 21.6497C47.1687 25.8133 42.4383 27.7248 38.1767 26.1157C34.6775 24.7939 32.4668 21.3073 32.6612 17.5727C32.833 14.2791 34.9397 11.3611 37.9657 10.1019C41.3865 8.67829 45.395 9.62911 47.8024 12.4559C49.0762 13.9524 49.7694 15.7243 49.882 17.7717C49.8845 17.8175 49.8634 17.8456 49.8187 17.8562L37.482 20.7049C37.4488 20.7129 37.4425 20.7305 37.4631 20.7576ZM45.0514 15.3619C43.7381 13.5304 41.336 12.9053 39.3174 13.8403C37.971 14.4639 36.9191 15.7457 36.6758 17.2831C36.6712 17.3118 36.6833 17.3228 36.7119 17.3163L45.0401 15.3928C45.0433 15.3921 45.0463 15.3906 45.0487 15.3884C45.0512 15.3863 45.053 15.3835 45.0542 15.3804C45.0553 15.3774 45.0556 15.3741 45.0551 15.3708C45.0547 15.3676 45.0534 15.3645 45.0514 15.3619ZM55.64 10.9441C57.532 9.39913 59.8799 9.10431 62.1991 9.76182C65.2318 10.6221 66.631 13.4716 66.6363 16.4424C66.6423 19.6902 66.6428 22.9388 66.6378 26.1881C66.6378 26.2122 66.6257 26.2243 66.6016 26.2243L62.401 26.2258C62.3779 26.2258 62.3663 26.2142 62.3663 26.1911C62.3618 23.2062 62.3618 20.22 62.3663 17.2326C62.3701 14.5438 60.772 13.1564 58.0881 13.6231C56.0032 13.9858 55.5858 15.7329 55.5843 17.547C55.5828 20.4269 55.5823 23.3067 55.5828 26.1866C55.5828 26.2117 55.57 26.2243 55.5443 26.2243L51.3588 26.2258C51.3362 26.2258 51.3249 26.2145 51.3249 26.1919L51.3256 9.78519C51.3256 9.76156 51.3374 9.74975 51.361 9.74975H55.5451C55.5702 9.74975 55.5828 9.76232 55.5828 9.78745V10.917C55.5828 10.9662 55.6019 10.9753 55.64 10.9441ZM129.467 20.7109C129.464 20.7116 129.461 20.7129 129.459 20.7148C129.457 20.7168 129.455 20.7192 129.454 20.7218C129.453 20.7245 129.453 20.7274 129.454 20.7302C129.454 20.7331 129.455 20.7358 129.457 20.738C131.365 23.3673 135.229 23.4058 137.103 20.7049C137.11 20.6948 137.12 20.6871 137.131 20.6827C137.143 20.6782 137.155 20.6773 137.167 20.68L141.089 21.5795C141.094 21.5808 141.099 21.5833 141.104 21.5868C141.108 21.5903 141.112 21.5947 141.114 21.5997C141.117 21.6047 141.118 21.6101 141.118 21.6156C141.118 21.6211 141.117 21.6266 141.115 21.6316C139.581 24.9545 136.196 26.9527 132.551 26.6593C128.472 26.3306 125.212 23.1298 124.714 19.0807C124.286 15.6092 126.071 12.1905 129.125 10.5068C132.194 8.81628 136.049 9.17368 138.743 11.4154C140.693 13.037 141.74 15.1586 141.886 17.78C141.888 17.8208 141.869 17.8456 141.83 17.8547L129.467 20.7109ZM137.048 15.3498C134.7 12.0012 129.343 13.231 128.689 17.2831C128.684 17.3113 128.696 17.3221 128.724 17.3156L137.029 15.3973C137.034 15.3962 137.039 15.394 137.042 15.3907C137.046 15.3874 137.049 15.3833 137.051 15.3786C137.053 15.3739 137.054 15.3688 137.053 15.3638C137.053 15.3588 137.051 15.354 137.048 15.3498ZM25.2395 20.8534L29.4333 9.76558C29.4352 9.76089 29.4384 9.75686 29.4425 9.75403C29.4467 9.7512 29.4516 9.74971 29.4567 9.74975H34.0559C34.06 9.74972 34.064 9.75068 34.0676 9.75256C34.0712 9.75444 34.0743 9.75717 34.0766 9.76052C34.0789 9.76387 34.0803 9.76773 34.0808 9.77176C34.0813 9.7758 34.0807 9.77989 34.0793 9.78368L27.4818 26.2084C27.48 26.213 27.4769 26.217 27.4729 26.2198C27.4689 26.2226 27.4641 26.2242 27.4592 26.2243L23.0092 26.2258C23.0043 26.2257 22.9995 26.2241 22.9955 26.2213C22.9915 26.2185 22.9884 26.2145 22.9866 26.2099L16.3884 9.78293C16.3869 9.77914 16.3864 9.77505 16.3868 9.77101C16.3873 9.76697 16.3888 9.76311 16.3911 9.75976C16.3934 9.75641 16.3964 9.75368 16.4001 9.75181C16.4037 9.74993 16.4077 9.74896 16.4117 9.749L21.0117 9.74975C21.0167 9.74971 21.0217 9.7512 21.0258 9.75403C21.03 9.75686 21.0332 9.76089 21.0351 9.76558L25.1928 20.8534C25.1945 20.8582 25.1977 20.8623 25.2019 20.8653C25.206 20.8682 25.211 20.8698 25.2161 20.8698C25.2212 20.8698 25.2262 20.8682 25.2304 20.8653C25.2345 20.8623 25.2377 20.8582 25.2395 20.8534Z" fill="#DADADA"/>
<path d="M112.846 9.74976H108.649C108.627 9.74976 108.609 9.76731 108.609 9.78896V26.1858C108.609 26.2075 108.627 26.225 108.649 26.225H112.846C112.867 26.225 112.885 26.2075 112.885 26.1858V9.78896C112.885 9.76731 112.867 9.74976 112.846 9.74976Z" fill="#DADADA"/>
<path d="M102.393 11.1748C102.393 11.1781 102.394 11.1814 102.395 11.1841C102.397 11.1869 102.4 11.1892 102.403 11.1907C102.405 11.1921 102.409 11.1928 102.412 11.1925C102.415 11.1923 102.419 11.1911 102.421 11.1892C103.817 10.1614 105.43 9.8606 107.124 9.79424C107.147 9.79374 107.158 9.80455 107.158 9.82666L107.159 13.9813C107.159 14.0054 107.147 14.018 107.123 14.019C105.88 14.0695 104.198 14.2128 103.257 15.144C102.582 15.8121 102.417 16.8028 102.412 17.7476C102.397 20.5656 102.39 23.3819 102.391 26.1964C102.391 26.216 102.381 26.2258 102.362 26.2258H98.152C98.1426 26.2258 98.1336 26.2221 98.127 26.2154C98.1203 26.2088 98.1166 26.1997 98.1166 26.1903V9.78746C98.1166 9.77746 98.1205 9.76787 98.1276 9.7608C98.1347 9.75373 98.1443 9.74976 98.1543 9.74976H102.355C102.38 9.74976 102.393 9.76232 102.393 9.78746V11.1748Z" fill="#DADADA"/>
</svg>
