<svg width="194" height="194" viewBox="0 0 194 194" fill="none" xmlns="http://www.w3.org/2000/svg">
<path d="M32.3334 169.75H110.095C114.759 169.75 119.368 168.74 123.606 166.791C127.843 164.842 131.609 161.999 134.644 158.457L175.885 110.345C176.749 109.34 177.352 108.137 177.641 106.843C177.93 105.55 177.897 104.205 177.544 102.927C177.191 101.649 176.529 100.478 175.617 99.5163C174.705 98.5545 173.57 97.8319 172.312 97.4121L156.404 92.1095C152.56 90.8576 148.466 90.5737 144.485 91.2829C140.505 91.9922 136.761 93.6727 133.585 96.1754L107.84 116.764L102.852 106.781C100.181 101.399 96.0551 96.8739 90.9435 93.7167C85.8319 90.5594 79.9383 88.8966 73.9302 88.9166H32.3334C23.4175 88.9166 16.1667 96.1673 16.1667 105.083V153.583C16.1667 162.499 23.4175 169.75 32.3334 169.75ZM32.3334 105.083H73.9302C80.0978 105.083 85.6349 108.502 88.3913 114.015L92.0046 121.25H56.5834V137.417H105.197C106.44 137.399 107.663 137.095 108.769 136.527L108.794 136.519L108.826 136.503H108.85L108.866 136.495H108.899L108.907 136.487C108.98 136.511 108.931 136.479 108.931 136.479C109.012 136.479 108.947 136.471 108.947 136.471H108.955L108.971 136.463L108.996 136.455L109.012 136.447L109.028 136.438L109.052 136.43L109.068 136.422C109.093 136.422 109.077 136.414 109.085 136.414L109.109 136.398L109.125 136.39L109.141 136.382L109.165 136.374L109.182 136.366H109.19L109.206 136.358L109.23 136.35L109.246 136.341C109.319 136.333 109.271 136.333 109.271 136.333L109.287 136.325C109.597 136.135 109.894 135.925 110.176 135.695L143.689 108.882C145.807 107.201 148.725 106.676 151.288 107.532L155.79 109.036L122.382 148.022C120.845 149.766 118.954 151.164 116.836 152.123C114.718 153.082 112.42 153.58 110.095 153.583H32.3334V105.083ZM129.333 16.1666H129.196C127.878 16.1827 121.064 16.4818 113.167 21.8653C105.479 16.6273 98.8269 16.207 97.2587 16.1746L97.0162 16.1666H96.9839C90.5092 16.1666 84.4143 18.6966 79.8553 23.2637C75.2802 27.847 72.7501 33.9337 72.7501 40.4166C72.7501 46.8994 75.2802 52.9861 79.7098 57.4239L107.306 86.4107C108.066 87.1989 108.976 87.8257 109.983 88.2536C110.991 88.6815 112.074 88.9017 113.168 88.901C114.263 88.9002 115.346 88.6785 116.353 88.2493C117.359 87.82 118.269 87.1919 119.027 86.4026L146.478 57.5613C151.061 52.9861 153.583 46.8994 153.583 40.4166C153.583 33.9337 151.053 27.847 146.486 23.2718C144.241 21.0136 141.571 19.2229 138.629 18.0033C135.688 16.7837 132.534 16.1595 129.35 16.1666H129.333ZM137.417 40.4166C137.417 42.5748 136.576 44.6037 134.903 46.277L113.167 69.1124L91.2852 46.1315C89.7574 44.6037 88.9167 42.5748 88.9167 40.4166C88.9167 38.2583 89.7574 36.2294 91.2932 34.6936C92.7565 33.2089 94.746 32.3608 96.8303 32.3332C97.0324 32.3413 100.888 32.5919 105.455 36.2536C106.107 36.7818 106.773 37.3799 107.452 38.0481L113.167 43.7631L118.882 38.0481C119.561 37.3799 120.226 36.7818 120.878 36.2536C125.154 32.8182 128.768 32.3898 129.382 32.3413C130.435 32.3424 131.478 32.5515 132.45 32.9566C133.423 33.3616 134.306 33.9546 135.048 34.7016C136.576 36.2294 137.417 38.2583 137.417 40.4166Z" fill="white"/>
</svg>
