<svg width="319" height="319" viewBox="0 0 319 319" fill="none" xmlns="http://www.w3.org/2000/svg">
<g clip-path="url(#clip0_92_774)">
<path d="M135.675 64.0989L110.205 89.569C102.578 91.6625 95.5006 95.5004 89.5194 100.784L76.2609 112.597C71.1769 117.133 64.5476 119.625 57.7191 119.625H47.85V183.425C58.0181 183.724 67.6878 187.861 74.9151 195.088L92.6595 212.833L96.1486 216.322L109.606 229.779C112.697 232.87 117.781 232.87 120.871 229.779C121.718 228.932 122.366 227.935 122.715 226.889C124.111 223.051 127.351 220.16 131.338 219.262C135.326 218.365 139.513 219.562 142.404 222.502L147.787 227.786C153.569 233.568 162.939 233.568 168.671 227.786C171.363 225.094 172.808 221.655 172.958 218.116C173.157 213.73 175.749 209.842 179.737 207.948C183.724 206.054 188.36 206.453 191.898 208.995C196.584 212.334 203.113 211.886 207.3 207.699C211.985 203.013 211.985 195.437 207.3 190.802L169.519 153.02L151.675 169.469C138.067 182.029 117.183 182.229 103.326 169.917C87.5256 155.861 87.1767 131.338 102.529 116.834L137.469 83.837C151.126 70.9773 169.17 63.7998 187.961 63.7998C205.954 63.7998 223.35 70.429 236.758 82.3417L251.761 95.6998H311.025C315.411 95.6998 319 99.2886 319 103.675V207.35C319 216.172 311.872 223.3 303.05 223.3H287.1C281.218 223.3 276.035 220.11 273.293 215.325H230.976C229.281 218.664 227.038 221.854 224.247 224.646C215.724 233.169 203.911 236.508 192.845 234.664C191.051 238.303 188.609 241.692 185.568 244.733C171.961 258.34 150.678 259.686 135.525 248.77C123.014 259.137 104.373 258.489 92.6595 246.726L79.2516 233.269L75.7625 229.779L58.0181 212.035C55.2767 209.294 51.688 207.699 47.85 207.4C47.85 216.172 40.6725 223.3 31.9 223.3H15.95C7.12765 223.3 -7.62939e-06 216.172 -7.62939e-06 207.35V103.675C-7.62939e-06 99.2886 3.58874 95.6998 7.97499 95.6998H57.7191C58.7159 95.6998 59.663 95.3509 60.3608 94.7029L73.5694 82.9398C87.4758 70.6284 105.37 63.7998 123.961 63.7998H129.095C131.288 63.7998 133.531 63.8995 135.675 64.0989ZM271.15 191.4V119.625H247.225C244.284 119.625 241.443 118.528 239.3 116.584L220.907 100.236C211.836 92.1609 200.123 87.7248 187.961 87.7248C175.3 87.7248 163.139 92.5597 153.917 101.232L118.977 134.229C113.843 139.114 113.943 147.338 119.226 152.023C123.862 156.16 130.89 156.061 135.425 151.874L171.263 118.777C176.098 114.292 183.674 114.591 188.16 119.475C192.646 124.36 192.347 131.886 187.462 136.372L187.064 136.771L224.147 173.855C229.132 178.839 232.372 184.97 233.817 191.35H271.15V191.4ZM31.9 199.375C31.9 197.26 31.0598 195.231 29.5642 193.736C28.0686 192.24 26.0401 191.4 23.925 191.4C21.8099 191.4 19.7814 192.24 18.2858 193.736C16.7902 195.231 15.95 197.26 15.95 199.375C15.95 201.49 16.7902 203.518 18.2858 205.014C19.7814 206.51 21.8099 207.35 23.925 207.35C26.0401 207.35 28.0686 206.51 29.5642 205.014C31.0598 203.518 31.9 201.49 31.9 199.375ZM295.075 207.35C297.19 207.35 299.219 206.51 300.714 205.014C302.21 203.518 303.05 201.49 303.05 199.375C303.05 197.26 302.21 195.231 300.714 193.736C299.219 192.24 297.19 191.4 295.075 191.4C292.96 191.4 290.931 192.24 289.436 193.736C287.94 195.231 287.1 197.26 287.1 199.375C287.1 201.49 287.94 203.518 289.436 205.014C290.931 206.51 292.96 207.35 295.075 207.35Z" fill="#D5D5D5" fill-opacity="0.16"/>
</g>
<defs>
<clipPath id="clip0_92_774">
<rect width="319" height="319" fill="white"/>
</clipPath>
</defs>
</svg>
