<svg width="289" height="260" viewBox="0 0 289 260" fill="none" xmlns="http://www.w3.org/2000/svg">
<path d="M24.0833 216.667H48.1666M48.1666 216.667H120.417M48.1666 216.667V124.063C48.1666 118.278 48.1666 115.386 48.9493 112.688C49.6424 110.304 50.7827 108.044 52.321 106.004C54.067 103.697 56.4874 101.779 61.3281 97.9768L119.14 52.4551C128.123 45.3918 132.615 41.8601 137.66 40.5168C142.116 39.3251 146.872 39.3251 151.328 40.5168C156.385 41.8601 160.889 45.3918 169.872 52.4768L227.672 97.9768C232.512 101.79 234.933 103.697 236.679 105.993C238.22 108.066 239.344 110.298 240.051 112.688C240.833 115.386 240.833 118.278 240.833 124.063V216.667M120.417 216.667H168.583M120.417 216.667V173.333C120.417 167.587 122.954 162.076 127.47 158.013C131.987 153.95 138.113 151.667 144.5 151.667C150.887 151.667 157.013 153.95 161.529 158.013C166.046 162.076 168.583 167.587 168.583 173.333V216.667M240.833 216.667H168.583M240.833 216.667H264.917" stroke="white" stroke-width="14" stroke-linecap="round" stroke-linejoin="round"/>
<path d="M144.574 90.4288C143.091 89.0373 141.137 88.2651 139.1 88.2656C138.022 88.2666 136.952 88.4828 135.952 88.9017C134.952 89.3206 134.042 89.934 133.274 90.7065C129.997 93.9874 129.937 99.1191 133.138 102.386L143.106 112.566C143.335 112.981 143.784 113.249 144.302 113.249C144.515 113.247 144.726 113.195 144.916 113.096C145.107 112.997 145.272 112.855 145.399 112.681L155.725 102.386C159.004 99.1177 159.065 93.9874 155.862 90.7009C155.112 89.9301 154.217 89.3181 153.228 88.9002C152.239 88.4823 151.175 88.2666 150.098 88.2656C148.061 88.2651 146.089 89.0373 144.574 90.4288ZM153.892 92.6642C156.017 94.8454 155.978 98.2527 153.803 100.423L144.343 109.854L135.107 100.423C132.983 98.2527 133.025 94.8454 135.196 92.6698C136.255 91.6201 137.629 91.0425 139.067 91.0425C140.505 91.0425 141.861 91.6201 142.886 92.667L143.566 93.3612C143.821 93.6215 144.169 93.7677 144.534 93.7677C144.899 93.7677 145.251 93.6215 145.512 93.3612L146.208 92.667C148.314 90.5718 151.839 90.5774 153.892 92.6642Z" fill="white"/>
</svg>
