<svg width="37" height="37" viewBox="0 0 37 37" fill="none" xmlns="http://www.w3.org/2000/svg">
<path d="M18.8033 9.1111C13.6719 9.1111 9.53052 13.3042 9.53052 18.4998C9.53052 23.6955 13.6719 27.8886 18.8033 27.8886C23.9348 27.8886 28.0762 23.6955 28.0762 18.4998C28.0762 13.3042 23.9348 9.1111 18.8033 9.1111ZM18.8033 24.6018C15.4848 24.6018 12.7767 21.8598 12.7767 18.4998C12.7767 15.1398 15.4848 12.3978 18.8033 12.3978C22.1219 12.3978 24.83 15.1398 24.83 18.4998C24.83 21.8598 22.1219 24.6018 18.8033 24.6018ZM28.4559 6.53847C27.2578 6.53847 26.2903 7.51808 26.2903 8.73116C26.2903 9.94423 27.2578 10.9238 28.4559 10.9238C29.654 10.9238 30.6216 9.94881 30.6216 8.73116C30.6219 8.44311 30.5661 8.15782 30.4574 7.89163C30.3487 7.62543 30.1892 7.38357 29.9881 7.17989C29.7869 6.97621 29.548 6.81471 29.2851 6.70464C29.0222 6.59458 28.7404 6.53811 28.4559 6.53847ZM36.8788 18.4998C36.8788 15.973 36.9014 13.469 36.7612 10.9467C36.6211 8.01705 35.961 5.41695 33.8451 3.27462C31.7247 1.1277 29.1612 0.463947 26.2677 0.32204C23.7721 0.180133 21.299 0.203022 18.8079 0.203022C16.3122 0.203022 13.8392 0.180133 11.348 0.32204C8.4545 0.463947 5.8865 1.13228 3.77061 3.27462C1.65021 5.42153 0.994644 8.01705 0.85449 10.9467C0.714335 13.4736 0.73694 15.9776 0.73694 18.4998C0.73694 21.0221 0.714335 23.5307 0.85449 26.0529C0.994644 28.9826 1.65473 31.5827 3.77061 33.7251C5.89102 35.872 8.4545 36.5357 11.348 36.6776C13.8437 36.8195 16.3167 36.7966 18.8079 36.7966C21.3035 36.7966 23.7766 36.8195 26.2677 36.6776C29.1612 36.5357 31.7292 35.8674 33.8451 33.7251C35.9655 31.5781 36.6211 28.9826 36.7612 26.0529C36.9059 23.5307 36.8788 21.0267 36.8788 18.4998ZM32.9002 29.2939C32.5702 30.127 32.1723 30.7496 31.5348 31.3905C30.8974 32.0359 30.287 32.4387 29.4642 32.7729C27.086 33.7296 21.4392 33.5145 18.8033 33.5145C16.1675 33.5145 10.5161 33.7296 8.13802 32.7775C7.31517 32.4433 6.7003 32.0405 6.06734 31.395C5.42987 30.7496 5.03201 30.1316 4.70197 29.2985C3.76157 26.8861 3.97406 21.1686 3.97406 18.4998C3.97406 15.8311 3.76157 10.109 4.70197 7.70119C5.03201 6.86806 5.42987 6.2455 6.06734 5.60463C6.70482 4.96376 7.31517 4.55635 8.13802 4.22219C10.5161 3.27004 16.1675 3.48519 18.8033 3.48519C21.4392 3.48519 27.0906 3.27004 29.4687 4.22219C30.2915 4.55635 30.9064 4.95919 31.5394 5.60463C32.1768 6.25008 32.5747 6.86806 32.9047 7.70119C33.8451 10.109 33.6326 15.8311 33.6326 18.4998C33.6326 21.1686 33.8451 26.8861 32.9002 29.2939Z" fill="white"/>
</svg>
