<svg width="24" height="23" viewBox="0 0 24 23" fill="none" xmlns="http://www.w3.org/2000/svg">
<path fill-rule="evenodd" clip-rule="evenodd" d="M12.7664 6.9999V9.5375C13.2996 8.72634 14.0345 8.0677 14.899 7.6262C15.7635 7.18469 16.7279 6.97549 17.6976 7.0191C22.88 7.0191 24 10.2479 24 14.4479V22.9999H19.2V15.4191C19.2 13.6111 18.8336 11.2847 16.008 11.2847C13.2672 11.2847 12.8 13.2527 12.8 15.2847V22.9999H8.0144V6.9999H12.7664ZM4.8 2.9791C4.8 3.61562 4.54714 4.22607 4.09706 4.67616C3.64697 5.12625 3.03652 5.3791 2.4 5.3791C1.76348 5.3791 1.15303 5.12625 0.702944 4.67616C0.252856 4.22607 0 3.61562 0 2.9791C0 2.34258 0.252856 1.73213 0.702944 1.28205C1.15303 0.831958 1.76348 0.579102 2.4 0.579102C3.03652 0.579102 3.64697 0.831958 4.09706 1.28205C4.54714 1.73213 4.8 2.34258 4.8 2.9791Z" fill="white"/>
<path d="M4.8 7.01904H0V22.9998H4.8V7.01904Z" fill="white"/>
</svg>
