<svg width="262" height="281" viewBox="0 0 262 281" fill="none" xmlns="http://www.w3.org/2000/svg">
<path d="M259.384 0.38031L242.762 6.03245C214.275 16.1292 183.838 19.2276 153.923 15.0759C122.487 10.105 90.3324 14.5222 61.3492 27.7932C45.9836 34.4691 32.509 44.9604 22.1525 58.3121C11.7959 71.6638 4.88633 87.4517 2.05272 104.239C-0.831791 120.382 -0.495172 136.959 3.04249 152.982C6.58016 169.005 13.2464 184.145 22.6434 197.499C21.8184 200.466 20.9934 203.434 20.307 206.401C14.7322 230.805 11.9974 255.799 12.1592 280.868H39.8845C41.1551 260.35 43.8417 239.952 47.9243 219.825C67.1819 230.411 88.7634 235.811 110.619 235.51C131.004 235.495 151.169 231.315 169.923 223.216C275.313 177.293 261.103 24.5432 261.088 18.1846L259.384 0.38031ZM159.051 197.216C122.905 212.901 79.6479 210.216 55.3441 190.858C59.4135 176.884 65.0093 163.423 72.0265 150.727C77.487 141.593 83.9305 133.109 91.2379 125.434C98.7075 117.679 107.125 110.936 116.284 105.369C135.208 93.8181 156.209 86.2286 178.06 83.043L178.028 68.9126C152.875 68.0088 127.887 73.2408 105.145 84.1734C81.8959 95.7659 62.1935 113.594 48.1485 135.749C42.9412 144.213 38.3288 153.043 34.3461 162.173C27.8829 145.419 26.0201 127.197 28.9582 109.467C30.8814 97.0537 35.8747 85.3515 43.4676 75.4629C51.0605 65.5744 61.003 57.8251 72.3581 52.9453C88.91 45.0352 106.989 40.9808 125.286 41.0758C133.881 41.0758 142.339 41.9236 151.213 42.6301C179.007 46.2842 207.213 44.6068 234.378 37.6845C233.496 76.6843 226.773 167.825 159.051 197.216Z" fill="#D5D5D5" fill-opacity="0.18"/>
</svg>
