<svg width="20" height="20" viewBox="0 0 20 20" fill="none" xmlns="http://www.w3.org/2000/svg">
<path d="M5.68167 18.3334V15.9525C5.43333 13.4717 2.5 12.1434 2.5 8.33336C2.5 4.52503 4.7725 1.62003 9.31833 1.66669C12.5908 1.70169 15.6817 3.57169 15.6817 7.38169L17.5 10.2384C17.5 12.1434 15.6817 12.1434 15.6817 12.1434C15.6817 12.1434 16.1367 16.905 12.045 16.905V18.3334" stroke="white" stroke-width="1.5" stroke-linecap="round" stroke-linejoin="round"/>
<path d="M9.16667 9.99996C9.60869 9.99996 10.0326 9.82436 10.3452 9.5118C10.6577 9.19924 10.8333 8.77532 10.8333 8.33329C10.8333 7.89127 10.6577 7.46734 10.3452 7.15478C10.0326 6.84222 9.60869 6.66663 9.16667 6.66663C8.72464 6.66663 8.30072 6.84222 7.98816 7.15478C7.6756 7.46734 7.5 7.89127 7.5 8.33329C7.5 8.77532 7.6756 9.19924 7.98816 9.5118C8.30072 9.82436 8.72464 9.99996 9.16667 9.99996Z" stroke="white" stroke-width="1.5" stroke-linecap="round" stroke-linejoin="round"/>
<path d="M9.16699 10.8334C9.83003 10.8334 10.4659 10.57 10.9348 10.1011C11.4036 9.6323 11.667 8.99642 11.667 8.33337C11.667 7.67033 11.4036 7.03445 10.9348 6.56561C10.4659 6.09677 9.83003 5.83337 9.16699 5.83337C8.50395 5.83337 7.86807 6.09677 7.39922 6.56561C6.93038 7.03445 6.66699 7.67033 6.66699 8.33337C6.66699 8.99642 6.93038 9.6323 7.39922 10.1011C7.86807 10.57 8.50395 10.8334 9.16699 10.8334Z" stroke="white" stroke-width="1.5" stroke-linecap="round" stroke-linejoin="round" stroke-dasharray="0.3 2"/>
</svg>
