<svg width="390" height="390" viewBox="0 0 390 390" fill="none" xmlns="http://www.w3.org/2000/svg">
<path d="M119 101C138.096 101 156.409 108.586 169.912 122.088C183.414 135.591 191 153.904 191 173V281M119 101C99.9044 101 81.5909 108.586 68.0883 122.088C54.5857 135.591 47 153.904 47 173V281H191M119 101H281M191 281H371V173C370.996 160.134 367.544 147.505 361.004 136.425C354.464 125.345 345.074 116.221 333.812 110M191 281V371M191 281H263V371M101 227H137M281 155V47H317" stroke="#385953" stroke-opacity="0.18" stroke-width="22" stroke-linecap="round" stroke-linejoin="round"/>
</svg>
