<svg width="297" height="331" viewBox="0 0 297 331" fill="none" xmlns="http://www.w3.org/2000/svg">
<path d="M159.135 103.599H179.487M159.135 144.866H179.487M77.7294 186.134H179.487M77.7294 227.401H179.487M220.19 103.599H265.98C274.406 103.599 281.244 110.532 281.244 119.074V248.035C281.244 256.244 278.028 264.116 272.303 269.92C266.578 275.725 258.813 278.986 250.717 278.986M220.19 103.599V248.035C220.19 256.244 223.406 264.116 229.131 269.92C234.856 275.725 242.62 278.986 250.717 278.986M220.19 103.599V67.4895C220.19 58.9471 213.352 52.0142 204.926 52.0142H52.2901C43.8646 52.0142 37.0265 58.9471 37.0265 67.4895V248.035C37.0265 256.244 40.2427 264.116 45.9677 269.92C51.6927 275.725 59.4574 278.986 67.5537 278.986H250.717M77.7294 103.599H118.432V144.866H77.7294V103.599Z" stroke="#D5D5D5" stroke-opacity="0.16" stroke-width="20" stroke-linecap="round" stroke-linejoin="round"/>
</svg>
