<svg width="692" height="973" viewBox="0 0 692 973" fill="none" xmlns="http://www.w3.org/2000/svg">
<path d="M35.3406 114.348L28.5876 109.176L35.3406 114.348ZM135.732 786.888L144.053 788.634L135.732 786.888ZM258.788 503.855L266.159 499.634L266.524 500.271L266.775 500.96L258.788 503.855ZM235.424 954.634L241.429 960.66L229.396 972.65L223.392 966.624L235.424 954.634ZM682.042 23.6779L677.027 30.5328L663.302 20.481L668.317 13.6261L682.042 23.6779ZM647.227 36.6634L653.489 30.9254L664.984 43.4674L658.722 49.2054L647.227 36.6634ZM632.285 70.4541L625.366 75.3801L615.492 61.5259L622.412 56.5999L632.285 70.4541ZM595.362 73.8882L602.727 69.6574L611.212 84.402L603.846 88.6328L595.362 73.8882ZM573.949 104.096L566.243 107.67L559.071 92.2453L566.778 88.6716L573.949 104.096ZM537.022 100.973L545.003 98.0609L550.852 114.032L542.871 116.944L537.022 100.973ZM510.799 127.119L502.597 129.337L498.136 112.926L506.338 110.708L510.799 127.119ZM474.948 117.71L483.318 116.239L486.285 132.983L477.915 134.453L474.948 117.71ZM444.431 138.702L435.957 139.359L434.617 122.41L443.091 121.753L444.431 138.702ZM411.063 122.586L419.561 122.813L419.132 139.807L410.635 139.58L411.063 122.586ZM376.65 136.533L368.263 135.139L371.025 118.37L379.412 119.764L376.65 136.533ZM348.437 112.358L356.57 114.844L351.623 131.1L343.491 128.614L348.437 112.358ZM311.739 117.259L303.851 114.08L310.185 98.3137L318.073 101.493L311.739 117.259ZM288.138 88.5266L295.877 92.0534L288.847 107.521L281.108 103.994L288.138 88.5266ZM251.117 90.1287L243.392 86.5702L250.485 71.1316L258.21 74.6901L251.117 90.1287ZM227.693 61.2272L235.555 64.4696L229.095 80.1842L221.233 76.9418L227.693 61.2272ZM191.011 65.9819L182.87 63.5245L187.76 47.2505L195.901 49.708L191.011 65.9819ZM162.23 42.4601L170.674 43.4493L168.722 60.3338L160.278 59.3446L162.23 42.4601ZM129.642 59.6001L121.235 60.8419L118.726 44.0243L127.132 42.7825L129.642 59.6001ZM93.3414 53.0705L101.02 49.4376L108.31 64.8067L100.631 68.4396L93.3414 53.0705ZM74.6968 85.0686L68.1185 90.4413L57.3526 77.2681L63.9308 71.8954L74.6968 85.0686ZM39.3429 95.9776L44.9193 89.5711L57.7496 100.744L52.1733 107.15L39.3429 95.9776ZM32.7794 133.214L28.429 140.509L13.8243 131.786L18.1748 124.49L32.7794 133.214ZM3.67784 159.012L5.74893 150.772L22.2366 154.94L20.1655 163.18L3.67784 159.012ZM17.4852 195.212L18.133 203.688L1.18239 204.958L0.534581 196.481L17.4852 195.212ZM8.51077 232.819L5.65312 224.809L21.6636 219.119L24.5213 227.128L8.51077 232.819ZM38.8218 257.404L43.0976 264.757L28.405 273.285L24.1292 265.932L38.8218 257.404ZM44.2862 295.933L39.1492 289.153L52.6934 278.9L57.8304 285.68L44.2862 295.933ZM79.7641 312.168L85.4328 318.51L72.7653 329.828L67.0966 323.486L79.7641 312.168ZM91.5426 349.298L85.5396 343.271L97.5753 331.284L103.578 337.311L91.5426 349.298ZM128.595 361.506L134.803 367.322L123.189 379.719L116.982 373.903L128.595 361.506ZM142.96 397.737L136.646 392.036L148.029 379.427L154.342 385.128L142.96 397.737ZM180.445 408.574L186.772 414.259L175.421 426.897L169.094 421.211L180.445 408.574ZM194.955 444.765L188.727 438.97L200.298 426.533L206.525 432.328L194.955 444.765ZM232.017 457.08L237.949 463.176L225.773 475.022L219.841 468.925L232.017 457.08ZM242.307 494.522L237.164 487.747L250.698 477.481L255.841 484.256L242.307 494.522ZM271.795 517.338L273.842 525.591L257.342 529.659L255.295 521.406L271.795 517.338ZM258.837 551.193L258.976 542.695L275.974 542.999L275.835 551.498L258.837 551.193ZM270.434 585.596L267.972 593.728L251.701 588.781L254.162 580.649L270.434 585.596ZM242.049 608.512L246.204 601.103L261.035 609.435L256.88 616.844L242.049 608.512ZM238.516 644.7L233.434 651.506L219.807 641.321L224.889 634.515L238.516 644.7ZM205.006 659.34L210.465 652.834L223.495 663.774L218.035 670.28L205.006 659.34ZM197.226 694.931L191.79 701.457L178.721 690.565L184.157 684.038L197.226 694.931ZM163.82 709.771L168.847 702.925L182.555 713.001L177.528 719.847L163.82 709.771ZM160.494 746.009L156.351 753.425L141.507 745.117L145.649 737.701L160.494 746.009ZM131.866 768.61L134.536 760.544L150.676 765.91L148.005 773.975L131.866 768.61ZM141.361 805.325L140.417 813.771L123.522 811.858L124.466 803.412L141.361 805.325ZM124.695 840.747L123.539 832.324L140.382 830.039L141.537 838.462L124.695 840.747ZM150.805 869.746L154.459 877.426L139.11 884.71L135.456 877.029L150.805 869.746ZM156.325 908.313L150.721 901.913L163.504 890.726L169.108 897.126L156.325 908.313ZM193.747 920.477L200.318 925.879L189.535 939.005L182.964 933.604L193.747 920.477ZM210.829 955.551L204.211 950.206L214.88 936.988L221.498 942.333L210.829 955.551ZM691.395 8.40344C688.945 13.4415 685.79 18.555 682.042 23.6779L668.317 13.6261C671.581 9.16435 674.175 4.91764 676.105 0.950073L691.395 8.40344ZM658.722 49.2054C650.897 56.3755 642.033 63.5146 632.285 70.4541L622.412 56.5999C631.648 50.0246 639.963 43.3193 647.227 36.6634L658.722 49.2054ZM603.846 88.6328C594.401 94.0576 584.407 99.2462 573.949 104.096L566.778 88.6716C576.79 84.0286 586.346 79.0666 595.362 73.8882L603.846 88.6328ZM542.871 116.944C532.491 120.731 521.778 124.151 510.799 127.119L506.338 110.708C516.834 107.87 527.083 104.599 537.022 100.973L542.871 116.944ZM477.915 134.453C466.926 136.384 455.744 137.825 444.431 138.702L443.091 121.753C453.835 120.92 464.473 119.55 474.948 117.71L477.915 134.453ZM410.635 139.58C405.01 139.429 399.366 139.126 393.712 138.662L395.076 121.719C400.412 122.157 405.744 122.443 411.063 122.586L410.635 139.58ZM393.712 138.662C387.972 138.191 382.285 137.47 376.65 136.533L379.412 119.764C384.614 120.628 389.834 121.289 395.076 121.719L393.712 138.662ZM343.491 128.614C332.727 125.324 322.142 121.451 311.739 117.259L318.073 101.493C328.141 105.55 338.253 109.245 348.437 112.358L343.491 128.614ZM281.108 103.994C271.028 99.4007 260.902 94.636 251.117 90.1287L258.21 74.6901C268.213 79.2982 278.051 83.9304 288.138 88.5266L281.108 103.994ZM221.233 76.9418C210.986 72.7159 200.928 68.9755 191.011 65.9819L195.901 49.708C206.505 52.9092 217.108 56.8619 227.693 61.2272L221.233 76.9418ZM160.278 59.3446C149.902 58.129 139.711 58.1129 129.642 59.6001L127.132 42.7825C138.878 41.0477 150.584 41.0958 162.23 42.4601L160.278 59.3446ZM100.631 68.4396C92.0665 72.4915 83.4249 77.9399 74.6968 85.0686L63.9308 71.8954C73.6363 63.9685 83.4345 57.7575 93.3414 53.0705L100.631 68.4396ZM52.1733 107.15C48.8255 110.996 45.4656 115.115 42.0936 119.521L28.5876 109.176C32.1637 104.503 35.7483 100.107 39.3429 95.9776L52.1733 107.15ZM42.0936 119.521C38.5802 124.112 35.4848 128.677 32.7794 133.214L18.1748 124.49C21.2319 119.363 24.6978 114.258 28.5876 109.176L42.0936 119.521ZM20.1655 163.18C17.4743 173.888 16.6711 184.56 17.4852 195.212L0.534581 196.481C-0.412794 184.085 0.520874 171.573 3.67784 159.012L20.1655 163.18ZM24.5213 227.128C28.1178 237.209 32.9498 247.306 38.8218 257.404L24.1292 265.932C17.8254 255.092 12.5161 244.045 8.51077 232.819L24.5213 227.128ZM57.8304 285.68C64.5688 294.574 71.934 303.407 79.7641 312.168L67.0966 323.486C59.0169 314.445 51.3496 305.255 44.2862 295.933L57.8304 285.68ZM103.578 337.311C111.711 345.476 120.098 353.544 128.595 361.506L116.982 373.903C108.379 365.842 99.8454 357.634 91.5426 349.298L103.578 337.311ZM154.342 385.128C163.162 393.092 171.887 400.884 180.445 408.574L169.094 421.211C160.593 413.572 151.795 405.715 142.96 397.737L154.342 385.128ZM206.525 432.328C215.6 440.773 224.19 449.035 232.017 457.08L219.841 468.925C212.28 461.153 203.91 453.098 194.955 444.765L206.525 432.328ZM255.841 484.256C259.769 489.429 263.248 494.56 266.159 499.634L251.416 508.076C248.945 503.768 245.897 499.25 242.307 494.522L255.841 484.256ZM266.775 500.96C268.801 506.53 270.468 511.986 271.795 517.338L255.295 521.406C254.119 516.663 252.631 511.781 250.8 506.75L266.775 500.96ZM275.835 551.498C275.639 563.479 273.7 574.804 270.434 585.596L254.162 580.649C257.007 571.249 258.668 561.486 258.837 551.193L275.835 551.498ZM256.88 616.844C251.48 626.476 245.221 635.721 238.516 644.7L224.889 634.515C231.294 625.937 237.109 617.322 242.049 608.512L256.88 616.844ZM218.035 670.28C211.01 678.653 204.176 686.587 197.226 694.931L184.157 684.038C191.021 675.798 198.274 667.363 205.006 659.34L218.035 670.28ZM177.528 719.847C171.26 728.382 165.495 737.056 160.494 746.009L145.649 737.701C151.076 727.986 157.253 718.714 163.82 709.771L177.528 719.847ZM148.005 773.975C146.423 778.756 145.094 783.636 144.053 788.634L127.41 785.142C128.59 779.48 130.09 773.974 131.866 768.61L148.005 773.975ZM144.053 788.634C142.842 794.448 141.955 800.007 141.361 805.325L124.466 803.412C125.122 797.537 126.096 791.451 127.41 785.142L144.053 788.634ZM141.537 838.462C143.144 850.173 146.407 860.499 150.805 869.746L135.456 877.029C130.328 866.251 126.546 854.242 124.695 840.747L141.537 838.462ZM169.108 897.126C176.664 905.756 185.117 913.385 193.747 920.477L182.964 933.604C173.954 926.198 164.727 917.909 156.325 908.313L169.108 897.126ZM221.498 942.333C226.487 946.362 231.244 950.438 235.424 954.634L223.392 966.624C219.834 963.054 215.612 959.414 210.829 955.551L221.498 942.333Z" fill="#D5D5D5"/>
</svg>
