<svg width="704" height="938" viewBox="0 0 704 938" fill="none" xmlns="http://www.w3.org/2000/svg">
<path d="M236.496 472.5L244.151 468.818L244.469 469.479L244.67 470.184L236.496 472.5ZM180.93 920.451L186.488 926.891L173.628 937.989L168.07 931.549L180.93 920.451ZM703.454 9.28152C694.982 23.9341 679.815 39.1875 660.335 53.4297C640.74 67.7556 616.304 81.4075 588.728 92.6732C533.635 115.18 465.316 128.438 397.212 117.901L399.785 101.099C464.182 111.062 529.354 98.5538 582.28 76.9321C608.713 66.1335 631.918 53.1302 650.29 39.6984C668.776 26.1828 681.9 12.5756 688.736 0.752903L703.454 9.28152ZM397.212 117.901C362.661 112.555 330.525 98.109 300.307 82.2008C269.587 66.0288 241.668 48.8554 213.382 36.3354C185.423 23.9599 158.844 17.0153 132.215 20.949C105.773 24.855 77.9285 39.7001 47.8648 73.6427L35.1339 62.3575C67.0705 26.3003 98.2887 8.77041 129.706 4.12946C160.935 -0.483765 191.013 7.85269 220.241 20.7896C249.142 33.582 278.941 51.7522 308.205 67.1582C337.971 82.8281 368.086 96.1944 399.785 101.099L397.212 117.901ZM47.8648 73.6427C18.7872 106.472 13.1274 140.29 21.3122 174.593C29.6523 209.547 52.4921 245.376 81.4499 280.814C110.361 316.195 144.52 350.208 174.9 381.981C204.847 413.301 231.706 443.001 244.151 468.818L228.841 476.183C217.786 453.249 193.02 425.512 162.624 393.722C132.661 362.386 97.7584 327.618 68.2951 291.561C38.8786 255.562 14.0318 217.296 4.77874 178.516C-4.62947 139.085 2.21123 99.528 35.1339 62.3575L47.8648 73.6427ZM244.67 470.184C254.182 503.61 251.528 531.857 241.445 556.947C231.477 581.752 214.422 603.019 195.984 622.91C177.067 643.317 157.616 661.413 140.035 682.064C122.794 702.317 108.704 723.612 101.674 748.337L85.3233 743.663C93.2924 715.638 109.078 692.183 127.086 671.03C144.755 650.275 165.928 630.308 183.511 611.34C201.571 591.856 216.891 572.436 225.672 550.585C234.339 529.019 236.809 504.64 228.322 474.816L244.67 470.184ZM168.07 931.549C160.645 922.946 150.411 914.281 138.634 903.608C127.135 893.187 114.655 881.251 104.096 866.909C82.5857 837.694 69.5532 799.121 85.3233 743.663L101.674 748.337C87.4436 798.379 99.1619 831.557 117.778 856.841C127.281 869.749 138.708 880.75 150.037 891.017C161.088 901.032 172.605 910.805 180.93 920.451L168.07 931.549Z" fill="#D5D5D5" fill-opacity="0.2"/>
</svg>
