<svg width="692" height="973" viewBox="0 0 692 973" fill="none" xmlns="http://www.w3.org/2000/svg">
<path d="M258.788 503.855L266.159 499.634L266.524 500.271L266.775 500.96L258.788 503.855ZM235.424 954.634L241.429 960.66L229.396 972.65L223.392 966.624L235.424 954.634ZM691.395 8.40344C683.993 23.6248 669.957 39.9246 651.546 55.5245C633.027 71.2161 609.631 86.5818 582.931 99.7923C529.59 126.185 462.396 144.298 393.712 138.662L395.076 121.719C460.021 127.048 524.131 109.907 575.373 84.5531C600.966 71.8903 623.181 57.2596 640.545 42.5473C658.016 27.7433 670.132 13.2317 676.105 0.950073L691.395 8.40344ZM393.712 138.662C358.867 135.803 325.78 123.694 294.501 109.989C262.702 96.0575 233.625 80.9264 204.516 70.463C175.743 60.1203 148.735 55.0957 122.456 60.9252C96.3612 66.7137 69.6509 83.5136 42.0936 119.521L28.5876 109.176C57.8617 70.9253 87.7451 51.206 118.75 44.3284C149.569 37.4919 180.166 43.6543 210.245 54.4661C239.987 65.1572 271.01 81.1481 301.302 94.4201C332.113 107.919 363.107 119.096 395.076 121.719L393.712 138.662ZM42.0936 119.521C15.4402 154.347 12.2153 188.483 22.8343 222.113C33.6546 256.38 59.0002 290.482 90.42 323.757C121.789 356.978 158.295 388.459 190.871 417.976C222.983 447.073 251.898 474.774 266.159 499.634L251.416 508.076C238.748 485.992 212.06 460.099 179.467 430.566C147.338 401.455 110.037 369.274 78.0681 335.418C46.1506 301.616 18.6288 265.228 6.62393 227.209C-5.58226 188.553 -1.59026 148.607 28.5876 109.176L42.0936 119.521ZM266.775 500.96C278.655 533.619 278.03 561.983 269.768 587.731C261.601 613.185 246.112 635.619 229.144 656.779C211.737 678.487 193.63 697.929 177.573 719.785C161.825 741.22 149.296 763.469 144.053 788.634L127.41 785.142C133.353 756.618 147.419 732.094 163.867 709.706C180.005 687.74 199.695 666.309 215.875 646.131C232.495 625.405 246.386 604.938 253.58 582.514C260.681 560.383 261.401 535.89 250.8 506.75L266.775 500.96ZM223.392 966.624C215.37 958.574 204.543 950.664 192.032 940.862C179.816 931.29 166.514 920.278 154.955 906.728C131.409 879.127 115.65 841.586 127.41 785.142L144.053 788.634C133.441 839.566 147.504 871.82 167.881 895.707C178.285 907.902 190.469 918.057 202.504 927.486C214.244 936.684 226.431 945.608 235.424 954.634L223.392 966.624Z" fill="#D5D5D5"/>
</svg>
