<svg width="28" height="28" viewBox="0 0 28 28" fill="none" xmlns="http://www.w3.org/2000/svg">
<path d="M23.3334 11.6666C23.3334 16.8209 14.0001 25.6666 14.0001 25.6666C14.0001 25.6666 4.66675 16.8209 4.66675 11.6666C4.66675 9.19123 5.65008 6.81726 7.40042 5.06692C9.15076 3.31658 11.5247 2.33325 14.0001 2.33325C16.4754 2.33325 18.8494 3.31658 20.5997 5.06692C22.3501 6.81726 23.3334 9.19123 23.3334 11.6666Z" stroke="#385953" stroke-width="2"/>
<path d="M13.9999 12.8333C14.3093 12.8333 14.6061 12.7104 14.8249 12.4916C15.0437 12.2728 15.1666 11.9761 15.1666 11.6667C15.1666 11.3572 15.0437 11.0605 14.8249 10.8417C14.6061 10.6229 14.3093 10.5 13.9999 10.5C13.6905 10.5 13.3938 10.6229 13.175 10.8417C12.9562 11.0605 12.8333 11.3572 12.8333 11.6667C12.8333 11.9761 12.9562 12.2728 13.175 12.4916C13.3938 12.7104 13.6905 12.8333 13.9999 12.8333Z" fill="#385953" stroke="#385953" stroke-width="2" stroke-linecap="round" stroke-linejoin="round"/>
</svg>
