<svg width="24" height="24" viewBox="0 0 24 24" fill="none" xmlns="http://www.w3.org/2000/svg">
<path d="M17.9825 18.7249C17.2837 17.7999 16.3796 17.0498 15.3416 16.5335C14.3035 16.0173 13.1598 15.7491 12.0005 15.7499C10.8412 15.7491 9.69747 16.0173 8.65942 16.5335C7.62138 17.0498 6.71735 17.7999 6.0185 18.7249M17.9825 18.7249C19.346 17.5121 20.3076 15.9135 20.7417 14.141C21.1758 12.3686 21.0608 10.506 20.412 8.80043C19.7632 7.09482 18.6112 5.62673 17.1089 4.59085C15.6066 3.55497 13.8248 3.00024 12 3.00024C10.1752 3.00024 8.39343 3.55497 6.89111 4.59085C5.38878 5.62673 4.23683 7.09482 3.58804 8.80043C2.93924 10.506 2.82425 12.3686 3.25832 14.141C3.69239 15.9135 4.655 17.5121 6.0185 18.7249M17.9825 18.7249C16.3363 20.1928 14.2061 21.0027 12.0005 20.9999C9.7946 21.003 7.66494 20.193 6.0185 18.7249M15.0005 9.74995C15.0005 10.5456 14.6844 11.3087 14.1218 11.8713C13.5592 12.4339 12.7962 12.7499 12.0005 12.7499C11.2049 12.7499 10.4418 12.4339 9.87918 11.8713C9.31657 11.3087 9.0005 10.5456 9.0005 9.74995C9.0005 8.9543 9.31657 8.19124 9.87918 7.62863C10.4418 7.06602 11.2049 6.74995 12.0005 6.74995C12.7962 6.74995 13.5592 7.06602 14.1218 7.62863C14.6844 8.19124 15.0005 8.9543 15.0005 9.74995Z" stroke="#385953" stroke-width="1.5" stroke-linecap="round" stroke-linejoin="round"/>
</svg>
